<svg width="128" height="116" viewBox="0 0 128 116" fill="none" xmlns="http://www.w3.org/2000/svg">
<g clip-path="url(#clip0_1_326)">
<path d="M18.2303 0.257324C19.3939 0.257324 20.6869 0.257324 21.8505 0.643039L18.2303 7.71447C12.8 7.32875 8.01616 11.7002 7.62828 17.3573C7.3697 23.0145 11.5071 27.9002 17.0667 28.1573H18.2303C20.6869 28.1573 23.0141 27.2573 24.8242 25.7145L28.703 32.5288C25.7293 34.7145 22.1091 36.0002 18.101 36.0002C8.53333 36.2573 0.387879 28.9288 -2.29571e-07 18.9002C-0.258586 9.00018 6.98182 0.643039 16.6788 0.257324H18.2303Z" fill="#1D1D1B"/>
<path d="M22.1091 15.5571L17.5839 23.2714H26.3758L30.5132 30.7286L35.0384 23.2714L30.5132 15.5571H22.1091Z" fill="#1D1D1B"/>
<path d="M23.2727 12.7287C23.2727 11.443 23.5313 10.2858 24.1778 9.25725C24.8242 8.35725 25.9879 7.32868 26.8929 6.8144L27.5394 6.42868C28.703 5.78583 29.0909 5.52868 29.0909 4.88583C29.0909 4.24297 28.1858 3.60011 27.5394 3.60011C26.3757 3.60011 25.3414 4.24297 24.8242 5.52868L23.2727 4.1144C23.5313 3.47154 24.1778 2.82868 24.8242 2.18583C25.7293 1.54297 26.6343 1.54297 27.5394 1.54297C28.4444 1.54297 29.7374 1.92868 30.2545 2.44297C30.7717 3.08583 31.4182 3.98583 31.4182 4.88583C31.4182 6.42868 30.5131 7.7144 28.703 8.35725L27.798 9.00011C26.8929 9.64297 26.2464 9.90011 25.9879 10.9287H31.4182V13.1144C31.4182 12.9858 23.2727 12.7287 23.2727 12.7287Z" fill="#1D1D1B"/>
</g>
<path d="M5.115 107.135C3.885 107.135 2.935 106.785 2.265 106.085C1.595 105.385 1.26 104.385 1.26 103.085V96.275H2.565V102.935C2.565 104.045 2.77 104.845 3.18 105.335C3.59 105.815 4.245 106.055 5.145 106.055C6.065 106.055 6.75 105.815 7.2 105.335C7.65 104.855 7.875 103.99 7.875 102.74V96.275H9.18V102.92C9.18 104.26 8.84 105.3 8.16 106.04C7.48 106.77 6.465 107.135 5.115 107.135ZM16.0093 107.135C14.6793 107.135 13.6893 106.825 13.0393 106.205C12.3993 105.575 12.0243 104.75 11.9143 103.73H13.1743C13.2243 104.08 13.2943 104.385 13.3843 104.645C13.4843 104.905 13.6343 105.15 13.8343 105.38C14.0343 105.61 14.3143 105.785 14.6743 105.905C15.0443 106.025 15.4893 106.085 16.0093 106.085C16.7093 106.085 17.2893 105.9 17.7493 105.53C18.2193 105.15 18.4543 104.66 18.4543 104.06C18.4543 103.44 18.2743 102.985 17.9143 102.695C17.5543 102.395 16.8693 102.165 15.8593 102.005C14.6493 101.825 13.7493 101.515 13.1593 101.075C12.5693 100.625 12.2743 99.95 12.2743 99.05C12.2743 98.22 12.5993 97.53 13.2493 96.98C13.8993 96.42 14.7243 96.14 15.7243 96.14C16.8043 96.14 17.6643 96.395 18.3043 96.905C18.9443 97.415 19.3143 98.145 19.4143 99.095H18.2443C18.1143 98.425 17.8493 97.94 17.4493 97.64C17.0493 97.34 16.4743 97.19 15.7243 97.19C15.0143 97.19 14.4643 97.35 14.0743 97.67C13.6843 97.99 13.4893 98.41 13.4893 98.93C13.4893 99.49 13.6593 99.91 13.9993 100.19C14.3393 100.47 15.0293 100.69 16.0693 100.85C17.3293 101.05 18.2493 101.38 18.8293 101.84C19.4193 102.29 19.7143 103 19.7143 103.97C19.7143 104.87 19.3593 105.625 18.6493 106.235C17.9493 106.835 17.0693 107.135 16.0093 107.135ZM22.6986 107V96.275H28.9536V97.34H24.0036V100.985H27.9936V102.05H24.0036V105.935H29.2236V107H22.6986ZM31.9447 107V96.275H35.1697C36.2797 96.275 37.1797 96.52 37.8697 97.01C38.5697 97.5 38.9197 98.25 38.9197 99.26V99.32C38.9197 100.15 38.6747 100.81 38.1847 101.3C37.7047 101.78 37.0647 102.095 36.2647 102.245L39.5497 107H38.0947L34.8997 102.335H33.2497V107H31.9447ZM33.2497 101.3H35.2597C36.8297 101.3 37.6147 100.64 37.6147 99.32V99.26C37.6147 98.56 37.4147 98.065 37.0147 97.775C36.6147 97.475 36.0297 97.325 35.2597 97.325H33.2497V101.3ZM45.4322 107.135C44.1022 107.135 43.1122 106.825 42.4622 106.205C41.8222 105.575 41.4472 104.75 41.3372 103.73H42.5972C42.6472 104.08 42.7172 104.385 42.8072 104.645C42.9072 104.905 43.0572 105.15 43.2572 105.38C43.4572 105.61 43.7372 105.785 44.0972 105.905C44.4672 106.025 44.9122 106.085 45.4322 106.085C46.1322 106.085 46.7122 105.9 47.1722 105.53C47.6422 105.15 47.8772 104.66 47.8772 104.06C47.8772 103.44 47.6972 102.985 47.3372 102.695C46.9772 102.395 46.2922 102.165 45.2822 102.005C44.0722 101.825 43.1722 101.515 42.5822 101.075C41.9922 100.625 41.6972 99.95 41.6972 99.05C41.6972 98.22 42.0222 97.53 42.6722 96.98C43.3222 96.42 44.1472 96.14 45.1472 96.14C46.2272 96.14 47.0872 96.395 47.7272 96.905C48.3672 97.415 48.7372 98.145 48.8372 99.095H47.6672C47.5372 98.425 47.2722 97.94 46.8722 97.64C46.4722 97.34 45.8972 97.19 45.1472 97.19C44.4372 97.19 43.8872 97.35 43.4972 97.67C43.1072 97.99 42.9122 98.41 42.9122 98.93C42.9122 99.49 43.0822 99.91 43.4222 100.19C43.7622 100.47 44.4522 100.69 45.4922 100.85C46.7522 101.05 47.6722 101.38 48.2522 101.84C48.8422 102.29 49.1372 103 49.1372 103.97C49.1372 104.87 48.7822 105.625 48.0722 106.235C47.3722 106.835 46.4922 107.135 45.4322 107.135ZM56.8412 107V96.275H58.1462V105.935H63.0512V107H56.8412ZM69.9495 106.055C71.1295 106.055 72.0645 105.65 72.7545 104.84C73.4545 104.03 73.8045 102.97 73.8045 101.66V101.54C73.8045 100.29 73.4545 99.255 72.7545 98.435C72.0645 97.605 71.1195 97.19 69.9195 97.19C68.6995 97.19 67.7395 97.595 67.0395 98.405C66.3395 99.215 65.9895 100.27 65.9895 101.57V101.69C65.9895 102.97 66.3645 104.02 67.1145 104.84C67.8745 105.65 68.8195 106.055 69.9495 106.055ZM69.9495 107.135C68.3895 107.135 67.1145 106.615 66.1245 105.575C65.1345 104.525 64.6395 103.235 64.6395 101.705V101.585C64.6395 100.035 65.1295 98.74 66.1095 97.7C67.0995 96.66 68.3695 96.14 69.9195 96.14C71.4695 96.14 72.7295 96.66 73.6995 97.7C74.6695 98.73 75.1545 100.015 75.1545 101.555V101.675C75.1545 103.215 74.6695 104.51 73.6995 105.56C72.7295 106.61 71.4795 107.135 69.9495 107.135ZM80.3636 107L76.7186 96.275H78.0086L81.2036 105.74L84.3986 96.275H85.6286L81.9236 107H80.3636ZM88.183 107V96.275H94.438V97.34H89.488V100.985H93.478V102.05H89.488V105.935H94.708V107H88.183ZM105.914 107.135C104.684 107.135 103.734 106.785 103.064 106.085C102.394 105.385 102.059 104.385 102.059 103.085V96.275H103.364V102.935C103.364 104.045 103.569 104.845 103.979 105.335C104.389 105.815 105.044 106.055 105.944 106.055C106.864 106.055 107.549 105.815 107.999 105.335C108.449 104.855 108.674 103.99 108.674 102.74V96.275H109.979V102.92C109.979 104.26 109.639 105.3 108.959 106.04C108.279 106.77 107.264 107.135 105.914 107.135ZM116.808 107.135C115.478 107.135 114.488 106.825 113.838 106.205C113.198 105.575 112.823 104.75 112.713 103.73H113.973C114.023 104.08 114.093 104.385 114.183 104.645C114.283 104.905 114.433 105.15 114.633 105.38C114.833 105.61 115.113 105.785 115.473 105.905C115.843 106.025 116.288 106.085 116.808 106.085C117.508 106.085 118.088 105.9 118.548 105.53C119.018 105.15 119.253 104.66 119.253 104.06C119.253 103.44 119.073 102.985 118.713 102.695C118.353 102.395 117.668 102.165 116.658 102.005C115.448 101.825 114.548 101.515 113.958 101.075C113.368 100.625 113.073 99.95 113.073 99.05C113.073 98.22 113.398 97.53 114.048 96.98C114.698 96.42 115.523 96.14 116.523 96.14C117.603 96.14 118.463 96.395 119.103 96.905C119.743 97.415 120.113 98.145 120.213 99.095H119.043C118.913 98.425 118.648 97.94 118.248 97.64C117.848 97.34 117.273 97.19 116.523 97.19C115.813 97.19 115.263 97.35 114.873 97.67C114.483 97.99 114.288 98.41 114.288 98.93C114.288 99.49 114.458 99.91 114.798 100.19C115.138 100.47 115.828 100.69 116.868 100.85C118.128 101.05 119.048 101.38 119.628 101.84C120.218 102.29 120.513 103 120.513 103.97C120.513 104.87 120.158 105.625 119.448 106.235C118.748 106.835 117.868 107.135 116.808 107.135Z" fill="black"/>
<g clip-path="url(#clip1_1_326)">
<path fill-rule="evenodd" clip-rule="evenodd" d="M9.97423 56L7.5708 63.3134H0L6.24891 67.9788L3.84548 75.4183L9.97423 70.7528L16.2231 75.4183L13.8197 67.9788L19.9485 63.3134H12.3777L9.97423 56Z" fill="black"/>
<path fill-rule="evenodd" clip-rule="evenodd" d="M36.2936 56L33.8902 63.3134H26.1992L32.328 67.9788L30.0447 75.4183L36.2936 70.7528L42.4224 75.4183L40.0189 67.9788L46.2678 63.3134H38.5769L36.2936 56Z" fill="black"/>
<path fill-rule="evenodd" clip-rule="evenodd" d="M63.5719 56L61.1685 63.3134H53.5977L59.8466 67.9788L57.4431 75.4183L63.5719 70.7528L69.8208 75.4183L67.4174 67.9788L73.5461 63.3134H65.9753L63.5719 56Z" fill="black"/>
<path fill-rule="evenodd" clip-rule="evenodd" d="M90.9703 56L88.6871 63.3134H80.9961L87.1248 67.9788L84.7214 75.4183L90.9703 70.7528L97.0991 75.4183L94.8158 67.9788L101.065 63.3134H93.3738L90.9703 56Z" fill="black"/>
<path fill-rule="evenodd" clip-rule="evenodd" d="M117.166 56L114.762 63.3134H107.191L113.32 67.9788L111.037 75.4183L117.166 70.7528L123.415 75.4183L121.011 67.9788L127.14 63.3134H119.449L117.166 56Z" fill="black"/>
</g>
<defs>
<clipPath id="clip0_1_326">
<rect width="128" height="36" fill="white"/>
</clipPath>
<clipPath id="clip1_1_326">
<rect width="128" height="20" fill="white" transform="translate(0 56)"/>
</clipPath>
</defs>
</svg>
